<svg width="127" height="200" viewBox="0 0 127 200" fill="none" xmlns="http://www.w3.org/2000/svg">
<path d="M19.3486 59.839H49.0978H96.5633H107.499C108.439 59.839 109.263 59.4875 109.851 58.8235C110.517 58.0813 110.791 56.9877 110.634 55.8549C108.243 38.0829 95.6226 22.8888 78.4943 17.1861C73.7517 15.5847 68.7347 14.8035 63.6393 14.8035C50.548 14.8035 37.9272 20.1156 29.0298 29.3727C22.0923 36.5596 17.5456 45.9729 16.213 55.8549C16.1738 56.1674 16.1738 56.4799 16.213 56.8314C16.2914 58.2766 17.3105 59.839 19.3486 59.839ZM63.6785 15.5457C63.7569 15.5457 63.8744 15.5457 63.9528 15.5457C63.8353 15.5457 63.7177 15.5457 63.6785 15.5457C63.6393 15.5457 63.6393 15.5457 63.6785 15.5457ZM50.1953 23.3575C54.3892 21.9514 58.8183 21.2483 63.2865 21.2483C74.6923 21.2483 85.7062 25.9355 93.4669 34.1379C98.4839 39.4109 101.972 46.0901 103.658 53.4333H77.7496H30.2841H23.2289C26.5213 39.2938 36.7905 27.8494 50.1953 23.3575Z" fill="#FF6E40"/>
<path d="M43.0831 41.2857C43.9062 41.2857 44.6901 40.9342 45.278 40.2702C49.1584 36.0127 54.2146 33.7082 59.9371 33.591C62.0144 33.552 63.0727 31.9115 63.0727 30.271C63.0727 28.7086 61.9752 27.1072 59.9763 27.1072H59.8979C52.4508 27.2244 45.5916 30.31 40.653 35.7393C39.7515 36.7158 39.5555 38.0047 40.0651 39.2156C40.653 40.4264 41.8288 41.2857 43.0831 41.2857Z" fill="#FF6E40"/>
<path d="M63.4272 8.90554C65.8965 8.90554 67.8955 6.91351 67.8955 4.45277C67.8955 1.99203 65.8965 0 63.4272 0C60.9579 0 58.959 1.99203 58.959 4.45277C58.959 6.91351 60.9579 8.90554 63.4272 8.90554Z" fill="#FF6E40"/>
<path d="M110.193 69.8772C109.566 69.2132 108.664 68.8226 107.802 68.8226H84.5591C83.344 68.8226 82.3641 69.4085 81.8154 70.424C81.6586 70.6584 81.541 70.8927 81.4626 71.1271C78.6798 78.8218 71.3503 83.9776 63.2368 83.9776C55.1234 83.9776 47.7939 78.8218 45.011 71.1271C44.5015 69.6819 43.2865 68.8226 41.9146 68.8226H19.0638C18.2015 68.8226 17.3 69.2132 16.6729 69.8772C16.0849 70.5021 15.7714 71.2833 15.8498 72.0645C17.6528 100.5 40.5036 122.881 53.9476 133.7C54.2219 133.896 54.4571 134.13 54.7315 134.325C56.4561 135.731 58.3766 137.333 60.6108 137.958C61.5122 138.192 62.3745 138.309 63.276 138.309C66.5684 138.309 69.2729 136.552 71.4678 134.833C78.9149 129.052 85.7349 122.412 91.771 115.108C103.647 100.734 110.114 86.2431 111.016 72.0645C111.055 71.2833 110.781 70.5021 110.193 69.8772ZM74.4467 131.474C79.934 126.865 85.0686 121.787 89.7328 116.358C85.0686 121.826 79.934 126.904 74.4467 131.474ZM69.2337 128.427C68.7634 128.818 68.3714 129.169 68.0187 129.443C67.1956 130.146 66.686 130.615 65.5102 131.279C64.8438 131.669 64.1775 131.864 63.5112 131.864C62.6097 131.864 61.6298 131.513 60.65 130.81C60.4932 130.693 60.3364 130.575 60.1796 130.458L60.0228 130.341L59.1605 129.677C52.1054 124.092 45.6382 117.764 39.9549 110.929C29.9993 98.9374 24.1984 86.9461 22.6305 75.2674H39.7589C44.1096 84.4854 53.242 90.4224 63.2368 90.4224C73.2316 90.4224 82.3641 84.4854 86.7148 75.2674H104.235C101.295 97.8828 83.6184 116.631 69.2337 128.427ZM107.802 69.6038C108.155 69.6038 108.507 69.6819 108.86 69.8381C108.507 69.6819 108.155 69.6038 107.802 69.6038Z" fill="#FF6E40"/>
<path d="M94.8647 185.415C94.8647 193.461 88.3191 199.984 80.2448 199.984C72.1706 199.984 65.625 193.461 65.625 185.415C65.625 177.369 72.1706 170.846 80.2448 170.846C88.3191 170.846 94.8647 177.369 94.8647 185.415ZM80.2448 176.705C75.4238 176.705 71.4651 180.611 71.4651 185.454C71.4651 190.297 75.3846 194.203 80.2448 194.203C85.105 194.203 89.0246 190.297 89.0246 185.454C89.0246 180.611 85.105 176.705 80.2448 176.705Z" fill="#FF6E40"/>
<path d="M61.4376 165.065H56.7733C56.4598 165.065 56.1854 165.338 56.1854 165.651V173.814C52.697 171.197 47.9544 170.104 43.0158 171.549C38.4692 172.877 34.8632 176.431 33.5306 180.923C30.5125 190.883 37.9204 199.984 47.4449 199.984C55.5191 199.984 62.0647 193.461 62.0647 185.415V165.612C62.0255 165.299 61.7512 165.065 61.4376 165.065ZM48.1504 194.125C42.7414 194.555 38.2732 190.102 38.7043 184.712C39.0571 180.493 42.4671 177.056 46.7394 176.705C52.1483 176.275 56.6166 180.728 56.1854 186.118C55.8327 190.375 52.3835 193.813 48.1504 194.125Z" fill="#FF6E40"/>
<path d="M126.299 170.846H119.675C119.519 170.846 119.362 170.924 119.244 171.002L104.35 185.845V165.612C104.35 165.299 104.076 165.026 103.762 165.026H99.0586C98.7451 165.026 98.4707 165.299 98.4707 165.612V199.359C98.4707 199.672 98.7451 199.945 99.0586 199.945H103.762C104.076 199.945 104.35 199.672 104.35 199.359V194.125L108.936 189.555L119.244 199.828C119.362 199.945 119.519 199.984 119.675 199.984H126.299C126.809 199.984 127.083 199.359 126.73 199.008L113.13 185.454L126.77 171.861C127.083 171.471 126.809 170.846 126.299 170.846Z" fill="#FF6E40"/>
<path d="M21.3824 191.235C21.2256 191.235 21.0688 191.313 20.9512 191.43C19.3442 193.11 17.1101 194.164 14.6016 194.164C10.7997 194.164 7.54646 191.743 6.33141 188.344H15.2679H28.4375C28.7119 188.344 28.9471 188.149 29.0255 187.876C29.3782 185.766 29.2998 183.462 28.5943 181.118C27.2225 176.47 23.5381 172.799 18.8739 171.471C8.52634 168.541 -0.841327 176.705 0.0601638 186.782C0.726483 193.969 6.68416 199.633 13.9353 199.984C19.893 200.257 25.0667 196.977 27.6144 192.133C27.8104 191.743 27.536 191.274 27.1049 191.274H21.3824V191.235ZM14.6016 176.705C18.4035 176.705 21.6568 179.126 22.8718 182.525H6.33141C7.54646 179.126 10.7605 176.705 14.6016 176.705Z" fill="#FF6E40"/>
</svg>
